<svg width="153" height="31" viewBox="0 0 153 31" fill="none" xmlns="http://www.w3.org/2000/svg">
<path d="M5.89986 25L0.489347 6.09091H4.85653L7.98651 19.2294H8.14347L11.5966 6.09091H15.3359L18.7798 19.2571H18.946L22.076 6.09091H26.4432L21.0327 25H17.1364L13.5355 12.6371H13.3878L9.79617 25H5.89986ZM34.3542 25.2557C33.0076 25.2557 31.8485 24.983 30.877 24.4375C29.911 23.8864 29.1667 23.108 28.644 22.1023C28.1213 21.0909 27.8599 19.8949 27.8599 18.5142C27.8599 17.1676 28.1213 15.9858 28.644 14.9688C29.1667 13.9517 29.9025 13.1591 30.8514 12.5909C31.8059 12.0227 32.9252 11.7386 34.2093 11.7386C35.073 11.7386 35.877 11.8778 36.6213 12.1562C37.3713 12.429 38.0247 12.8409 38.5815 13.392C39.144 13.9432 39.5815 14.6364 39.894 15.4716C40.2065 16.3011 40.3627 17.2727 40.3627 18.3864V19.3835H29.3088V17.1335H36.9451C36.9451 16.6108 36.8315 16.1477 36.6042 15.7443C36.377 15.3409 36.0616 15.0256 35.6582 14.7983C35.2605 14.5653 34.7974 14.4489 34.269 14.4489C33.7179 14.4489 33.2292 14.5767 32.8031 14.8324C32.3826 15.0824 32.0531 15.4205 31.8145 15.8466C31.5758 16.267 31.4537 16.7358 31.448 17.2528V19.392C31.448 20.0398 31.5673 20.5994 31.8059 21.071C32.0502 21.5426 32.394 21.9062 32.8372 22.1619C33.2804 22.4176 33.8059 22.5455 34.4139 22.5455C34.8173 22.5455 35.1866 22.4886 35.5218 22.375C35.8571 22.2614 36.144 22.0909 36.3826 21.8636C36.6213 21.6364 36.8031 21.358 36.9281 21.0284L40.286 21.25C40.1156 22.0568 39.7662 22.7614 39.2377 23.3636C38.715 23.9602 38.0389 24.4261 37.2093 24.7614C36.3855 25.0909 35.4338 25.2557 34.3542 25.2557ZM46.465 25.2472C45.6298 25.2472 44.8855 25.1023 44.2321 24.8125C43.5787 24.517 43.0616 24.0824 42.6809 23.5085C42.3059 22.929 42.1184 22.2074 42.1184 21.3438C42.1184 20.6165 42.252 20.0057 42.519 19.5114C42.786 19.017 43.1497 18.6193 43.6099 18.3182C44.0701 18.017 44.5929 17.7898 45.1781 17.6364C45.769 17.483 46.3883 17.375 47.036 17.3125C47.7974 17.233 48.411 17.1591 48.877 17.0909C49.3429 17.017 49.6809 16.9091 49.8912 16.767C50.1014 16.625 50.2065 16.4148 50.2065 16.1364V16.0852C50.2065 15.5455 50.036 15.1278 49.6951 14.8324C49.3599 14.5369 48.8826 14.3892 48.2633 14.3892C47.6099 14.3892 47.09 14.5341 46.7037 14.8239C46.3173 15.108 46.0616 15.4659 45.9366 15.8977L42.5787 15.625C42.7491 14.8295 43.0843 14.142 43.5843 13.5625C44.0843 12.9773 44.7292 12.5284 45.519 12.2159C46.3145 11.8977 47.2349 11.7386 48.2804 11.7386C49.0076 11.7386 49.7037 11.8239 50.3684 11.9943C51.0389 12.1648 51.6326 12.429 52.1497 12.7869C52.6724 13.1449 53.0843 13.6051 53.3855 14.1676C53.6866 14.7244 53.8372 15.392 53.8372 16.1705V25H50.394V23.1847H50.2917C50.0815 23.5938 49.8002 23.9545 49.448 24.267C49.0957 24.5739 48.6724 24.8153 48.1781 24.9915C47.6838 25.1619 47.1127 25.2472 46.465 25.2472ZM47.5048 22.7415C48.0389 22.7415 48.5105 22.6364 48.9196 22.4261C49.3287 22.2102 49.6497 21.9205 49.8826 21.5568C50.1156 21.1932 50.2321 20.7812 50.2321 20.321V18.9318C50.1184 19.0057 49.9622 19.0739 49.7633 19.1364C49.5701 19.1932 49.3514 19.2472 49.1071 19.2983C48.8627 19.3437 48.6184 19.3864 48.3741 19.4261C48.1298 19.4602 47.9082 19.4915 47.7093 19.5199C47.2832 19.5824 46.911 19.6818 46.5929 19.8182C46.2747 19.9545 46.0275 20.1392 45.8514 20.3722C45.6752 20.5994 45.5872 20.8835 45.5872 21.2244C45.5872 21.7188 45.7662 22.0966 46.1241 22.358C46.4877 22.6136 46.948 22.7415 47.5048 22.7415ZM60.2846 7.54545V25H56.6539V7.54545H60.2846ZM70.1561 11.9091V14.6364H62.2725V11.9091H70.1561ZM64.0623 8.77273H67.693V20.9773C67.693 21.3125 67.7441 21.5739 67.8464 21.7614C67.9487 21.9432 68.0907 22.071 68.2726 22.1449C68.4601 22.2187 68.676 22.2557 68.9203 22.2557C69.0907 22.2557 69.2612 22.2415 69.4316 22.2131C69.6021 22.179 69.7328 22.1534 69.8237 22.1364L70.3947 24.8381C70.2129 24.8949 69.9572 24.9602 69.6277 25.0341C69.2981 25.1136 68.8975 25.1619 68.426 25.179C67.551 25.2131 66.7839 25.0966 66.1248 24.8295C65.4714 24.5625 64.9629 24.1477 64.5993 23.5852C64.2356 23.0227 64.0566 22.3125 64.0623 21.4545V8.77273ZM76.4331 17.4318V25H72.8024V7.54545H76.3308V14.2188H76.4842C76.7797 13.446 77.2569 12.8409 77.916 12.4034C78.5751 11.9602 79.4018 11.7386 80.3961 11.7386C81.3052 11.7386 82.0978 11.9375 82.774 12.3352C83.4558 12.7273 83.9842 13.2926 84.3592 14.0312C84.7399 14.7642 84.9274 15.642 84.9217 16.6648V25H81.291V17.3125C81.2967 16.5057 81.0922 15.8778 80.6774 15.429C80.2683 14.9801 79.6944 14.7557 78.9558 14.7557C78.4615 14.7557 78.024 14.8608 77.6433 15.071C77.2683 15.2812 76.9728 15.5881 76.7569 15.9915C76.5467 16.3892 76.4387 16.8693 76.4331 17.4318ZM87.8471 25V7.54545H91.4778V14.108H91.5886C91.7477 13.7557 91.9778 13.3977 92.2789 13.0341C92.5858 12.6648 92.9835 12.358 93.4721 12.1136C93.9664 11.8636 94.5801 11.7386 95.313 11.7386C96.2676 11.7386 97.1483 11.9886 97.9551 12.4886C98.7619 12.983 99.4068 13.7301 99.8897 14.7301C100.373 15.7244 100.614 16.9716 100.614 18.4716C100.614 19.9318 100.378 21.1648 99.9068 22.1705C99.4409 23.1705 98.8045 23.929 97.9977 24.446C97.1966 24.9574 96.2988 25.2131 95.3045 25.2131C94.6 25.2131 94.0005 25.0966 93.5062 24.8636C93.0176 24.6307 92.617 24.3381 92.3045 23.9858C91.992 23.6278 91.7534 23.267 91.5886 22.9034H91.4267V25H87.8471ZM91.4011 18.4545C91.4011 19.233 91.5091 19.9119 91.725 20.4915C91.9409 21.071 92.2534 21.5227 92.6625 21.8466C93.0716 22.1648 93.5687 22.3239 94.1539 22.3239C94.7449 22.3239 95.2449 22.1619 95.6539 21.8381C96.063 21.5085 96.3727 21.054 96.5829 20.4744C96.7988 19.8892 96.9068 19.2159 96.9068 18.4545C96.9068 17.6989 96.8017 17.0341 96.5914 16.4602C96.3812 15.8864 96.0716 15.4375 95.6625 15.1136C95.2534 14.7898 94.7505 14.6278 94.1539 14.6278C93.563 14.6278 93.063 14.7841 92.6539 15.0966C92.2505 15.4091 91.9409 15.8523 91.725 16.4261C91.5091 17 91.4011 17.6761 91.4011 18.4545ZM111.432 19.4261V11.9091H115.062V25H111.577V22.6222H111.44C111.145 23.3892 110.653 24.0057 109.966 24.4716C109.284 24.9375 108.452 25.1705 107.469 25.1705C106.594 25.1705 105.824 24.9716 105.159 24.5739C104.494 24.1761 103.974 23.6108 103.599 22.8778C103.23 22.1449 103.042 21.267 103.037 20.2443V11.9091H106.667V19.5966C106.673 20.3693 106.881 20.9801 107.29 21.429C107.699 21.8778 108.247 22.1023 108.934 22.1023C109.372 22.1023 109.781 22.0028 110.162 21.804C110.542 21.5994 110.849 21.2983 111.082 20.9006C111.321 20.5028 111.437 20.0114 111.432 19.4261ZM133.9 25.2131C132.905 25.2131 132.005 24.9574 131.198 24.446C130.397 23.929 129.76 23.1705 129.289 22.1705C128.823 21.1648 128.59 19.9318 128.59 18.4716C128.59 16.9716 128.831 15.7244 129.314 14.7301C129.797 13.7301 130.439 12.983 131.241 12.4886C132.047 11.9886 132.931 11.7386 133.891 11.7386C134.624 11.7386 135.235 11.8636 135.724 12.1136C136.218 12.358 136.616 12.6648 136.917 13.0341C137.224 13.3977 137.456 13.7557 137.616 14.108H137.726V7.54545H141.349V25H137.769V22.9034H137.616C137.445 23.267 137.204 23.6278 136.891 23.9858C136.584 24.3381 136.184 24.6307 135.689 24.8636C135.201 25.0966 134.604 25.2131 133.9 25.2131ZM135.05 22.3239C135.635 22.3239 136.13 22.1648 136.533 21.8466C136.942 21.5227 137.255 21.071 137.471 20.4915C137.692 19.9119 137.803 19.233 137.803 18.4545C137.803 17.6761 137.695 17 137.479 16.4261C137.263 15.8523 136.951 15.4091 136.542 15.0966C136.133 14.7841 135.635 14.6278 135.05 14.6278C134.454 14.6278 133.951 14.7898 133.542 15.1136C133.133 15.4375 132.823 15.8864 132.613 16.4602C132.403 17.0341 132.297 17.6989 132.297 18.4545C132.297 19.2159 132.403 19.8892 132.613 20.4744C132.829 21.054 133.138 21.5085 133.542 21.8381C133.951 22.1619 134.454 22.3239 135.05 22.3239ZM144.334 25V11.9091H147.854V14.1932H147.99C148.229 13.3807 148.629 12.767 149.192 12.3523C149.754 11.9318 150.402 11.7216 151.135 11.7216C151.317 11.7216 151.513 11.733 151.723 11.7557C151.933 11.7784 152.118 11.8097 152.277 11.8494V15.071C152.106 15.0199 151.871 14.9744 151.569 14.9347C151.268 14.8949 150.993 14.875 150.743 14.875C150.209 14.875 149.731 14.9915 149.311 15.2244C148.896 15.4517 148.567 15.7699 148.322 16.179C148.084 16.5881 147.964 17.0597 147.964 17.5938V25H144.334Z" fill="#00D1B2"/>
<rect x="118" y="12" width="3" height="13" fill="#F44336"/>
<rect x="124" y="8" width="3" height="17" fill="#36A2EB"/>
<rect x="137.699" y="4" width="4" height="21" fill="#4CAF50"/>
</svg>
